{"title":"Die Welle, The Wave 2008 DVDrip German English Subs Klam","uid":6807831,"size":1683767029,"categoryP":"video","categoryS":"movies","magnet":"?xt=urn:btih:7290898069719a178049cb1032f9480eef7c85f4&amp;dn=Die+Welle%2C+The+Wave+2008+DVDrip+German+English+Subs+Klam&amp;tr=udp%3A%2F%2Ftracker.openbittorrent.com%3A80&amp;tr=udp%3A%2F%2Fopen.demonii.com%3A1337&amp;tr=udp%3A%2F%2Ftracker.coppersurfer.tk%3A6969&amp;tr=udp%3A%2F%2Fexodus.desync.com%3A6969","seeders":84,"leechers":1,"uploader":"Klambake","files":-1,"time":1320936703,"description":"With: JÃƒÂ¼rgen Vogel, Frederick Lau and Jennifer Ulrich\n\nGymnasiumleraar Rainer Wenger start, tijdens een studieweek met als onderwerp 'Staatsvormen', een project in zijn klas met de bedoeling een dictatuur voelbaar te maken. Wat vrij onschuldig begint met begrippen als groepsdruk en discipline ontwikkelt zich na enkele dagen in een serieuze beweging met als naam Die Welle. Al op de derde dag beginnen de scholieren andersdenkenden uit te sluiten en het ene na het andere conflict escaleert.\n\nA high school teacher's unusual experiment to demonstrate to his students what life is like under a dictatorship spins horribly out of control when he forms a social unit with a life of its own. \n\nIncluded soft English Subs.\n\n------------------ Dutch Friends ------------------\nYou can find my Friends at: http://www.Film-Test.nl \n------ They got my dutch subs ----- and more ------\n\nGeneral:\n\nComplete name                    : Die Welle\\Die Welle.avi\nFormat                           : AVI\nFormat/Info                      : Audio Video Interleave\nFile size                        : 1.57 GiB\nDuration                         : 1h 42mn\nOverall bit rate                 : 2 191 Kbps\n\nVideo:\n\nFormat                           : MPEG-4 Visual\nFormat profile                   : Simple@L3\nFormat settings, BVOP            : No\nFormat settings, QPel            : No\nFormat settings, GMC             : No warppoints\nFormat settings, Matrix          : Default (H.263)\nCodec ID                         : XVID\nCodec ID/Hint                    : XviD\nDuration                         : 1h 42mn\nBit rate                         : 1 796 Kbps\nWidth                            : 720 pixels\nHeight                           : 304 pixels\nDisplay aspect ratio             : 2.35:1\nFrame rate                       : 25.000 fps\nColor space                      : YUV\nChroma subsampling               : 4:2:0\nBit depth                        : 8 bits\nScan type                        : Progressive\nCompression mode                 : Lossy\nBits/(Pixel*Frame)               : 0.328\nStream size                      : 1.28 GiB (82%)\nWriting library                  : XviD 1.1.2 (UTC 2006-11-01)\n\nAudio:\n\nFormat                           : AC-3\nFormat/Info                      : Audio Coding 3\nMode extension                   : CM (complete main)\nCodec ID                         : 2000\nDuration                         : 1h 42mn\nBit rate mode                    : Constant\nBit rate                         : 384 Kbps\nChannel(s)                       : 6 channels\nChannel positions                : Front: L C R, Side: L R, LFE\nSampling rate                    : 48.0 KHz\nBit depth                        : 16 bits\nCompression mode                 : Lossy\nStream size                      : 281 MiB (18%)\nAlignment                        : Aligned on interleaves\nInterleave, duration             : 32 ms (0.80 video frame)\nInterleave, preload duration     : 192 ms\n\n","torrent":{"xt":"urn:btih:7290898069719a178049cb1032f9480eef7c85f4","amp;dn":"Die+Welle%2C+The+Wave+2008+DVDrip+German+English+Subs+Klam","amp;tr":["udp%3A%2F%2Ftracker.openbittorrent.com%3A80","udp%3A%2F%2Fopen.demonii.com%3A1337","udp%3A%2F%2Ftracker.coppersurfer.tk%3A6969","udp%3A%2F%2Fexodus.desync.com%3A6969"],"infoHash":"7290898069719a178049cb1032f9480eef7c85f4","infoHashBuffer":{"type":"Buffer","data":[114,144,137,128,105,113,154,23,128,73,203,16,50,249,72,14,239,124,133,244]},"announce":[],"urlList":[]}}